<?xml version="1.0" encoding="UTF-8" standalone="no"?>
<!DOCTYPE svg PUBLIC "-//W3C//DTD SVG 1.1//EN" "http://www.w3.org/Graphics/SVG/1.1/DTD/svg11.dtd">
<svg width="100%" height="100%" viewBox="0 0 16 16" version="1.1" xmlns="http://www.w3.org/2000/svg" xmlns:xlink="http://www.w3.org/1999/xlink" xml:space="preserve" xmlns:serif="http://www.serif.com/" style="fill-rule:evenodd;clip-rule:evenodd;stroke-linejoin:round;stroke-miterlimit:2;">
    <path d="M11.177,11.85L12.777,11.85C13.066,11.85 13.31,11.91 13.509,12.029C13.71,12.146 13.864,12.305 13.969,12.506C14.075,12.707 14.128,12.933 14.128,13.183C14.128,13.433 14.074,13.659 13.966,13.86C13.861,14.059 13.706,14.217 13.504,14.334C13.279,14.455 13.026,14.515 12.771,14.507L11.968,14.507L11.968,15.849L11.178,15.849L11.178,11.85L11.177,11.85ZM13.237,13.564C13.297,13.446 13.326,13.315 13.322,13.183C13.322,12.957 13.26,12.783 13.137,12.662C13.014,12.54 12.843,12.48 12.625,12.48L11.965,12.48L11.965,13.886L12.625,13.886C12.755,13.89 12.884,13.862 13,13.804C13.101,13.75 13.184,13.666 13.237,13.564Z"/>
    <path d="M8.432,15.925L8.745,14.897L10.08,14.897L10.393,15.925L11.234,15.925L9.9,11.926L8.974,11.926L7.633,15.926L8.433,15.926L8.432,15.925ZM9.433,12.691L9.923,14.308L8.909,14.308L9.399,12.691L9.433,12.691Z"/>
    <path d="M6.208,15.849L4.544,15.849L4.544,11.85L6.214,11.85C6.571,11.85 6.857,11.937 7.072,12.11C7.287,12.285 7.394,12.526 7.394,12.834C7.397,12.98 7.366,13.124 7.304,13.256C7.248,13.372 7.164,13.473 7.06,13.549C6.955,13.625 6.835,13.68 6.709,13.71L6.709,13.745C6.871,13.761 7.019,13.808 7.154,13.886C7.289,13.963 7.401,14.075 7.476,14.211C7.562,14.367 7.605,14.543 7.599,14.721C7.599,14.959 7.539,15.162 7.421,15.331C7.301,15.498 7.137,15.627 6.929,15.717C6.7,15.809 6.455,15.854 6.208,15.849ZM6.03,12.445L5.329,12.445L5.329,13.515L5.85,13.515C6.028,13.515 6.173,13.493 6.284,13.45C6.385,13.416 6.472,13.352 6.533,13.265C6.59,13.177 6.618,13.074 6.615,12.969C6.623,12.824 6.566,12.683 6.46,12.585C6.358,12.492 6.215,12.445 6.03,12.445ZM6.079,14.065L5.329,14.065L5.329,15.255L5.918,15.255C6.228,15.255 6.452,15.205 6.588,15.108C6.726,15.008 6.803,14.844 6.794,14.674C6.797,14.56 6.769,14.448 6.712,14.349C6.657,14.255 6.572,14.182 6.472,14.139C6.348,14.087 6.214,14.061 6.079,14.065Z"/>
    <path d="M1.8,15.925L2.113,14.897L3.45,14.897L3.764,15.925L4.604,15.925L3.269,11.926L2.343,11.926L1.001,15.926L1.801,15.926L1.8,15.925ZM2.802,12.691L3.291,14.308L2.277,14.308L2.767,12.691L2.802,12.691Z"/>
    <path d="M14,4.5L14,11L13,11L13,4.5L11,4.5C10.177,4.5 9.5,3.823 9.5,3L9.5,1L4,1C3.451,1 3,1.451 3,2L3,11L2,11L2,2C2,0.903 2.903,0 4,0L9.5,0L14,4.5Z"/>
</svg>
