<?xml version="1.0" encoding="UTF-8" standalone="no"?>
<!DOCTYPE svg PUBLIC "-//W3C//DTD SVG 1.1//EN" "http://www.w3.org/Graphics/SVG/1.1/DTD/svg11.dtd">
<svg width="100%" height="100%" viewBox="0 0 16 16" version="1.1" xmlns="http://www.w3.org/2000/svg" xmlns:xlink="http://www.w3.org/1999/xlink" xml:space="preserve" xmlns:serif="http://www.serif.com/" style="fill-rule:evenodd;clip-rule:evenodd;stroke-linejoin:round;stroke-miterlimit:2;">
    <path d="M13.425,15.925L13.425,12.588L14.56,12.588L14.56,11.926L11.497,11.926L11.497,12.588L12.63,12.588L12.63,15.925L13.425,15.925Z"/>
    <path d="M8.128,14.841C8.14,15.159 8.285,15.459 8.529,15.664C8.659,15.772 8.818,15.856 9.007,15.916C9.197,15.977 9.418,16.007 9.672,16.007C10.01,16.007 10.296,15.954 10.531,15.849C10.767,15.744 10.947,15.597 11.07,15.409C11.195,15.22 11.257,15.001 11.257,14.753C11.257,14.529 11.212,14.343 11.123,14.193C11.031,14.043 10.902,13.92 10.748,13.836C10.571,13.738 10.38,13.667 10.182,13.626L9.561,13.482C9.415,13.455 9.276,13.395 9.157,13.306C9.065,13.235 9.011,13.124 9.013,13.007C9.013,12.851 9.075,12.723 9.198,12.623C9.323,12.522 9.494,12.471 9.71,12.471C9.853,12.471 9.976,12.494 10.08,12.539C10.176,12.578 10.26,12.64 10.326,12.72C10.388,12.794 10.429,12.883 10.446,12.978L11.196,12.978C11.183,12.774 11.114,12.578 10.996,12.412C10.87,12.233 10.697,12.091 10.496,12.002C10.25,11.894 9.984,11.842 9.716,11.85C9.423,11.85 9.164,11.9 8.94,12C8.715,12.099 8.54,12.24 8.413,12.421C8.286,12.603 8.223,12.816 8.223,13.06C8.223,13.261 8.263,13.436 8.345,13.584C8.427,13.733 8.545,13.854 8.697,13.951C8.849,14.046 9.029,14.118 9.236,14.164L9.854,14.308C10.061,14.357 10.215,14.421 10.317,14.501C10.418,14.578 10.475,14.7 10.469,14.827C10.471,14.93 10.441,15.031 10.384,15.117C10.32,15.205 10.231,15.272 10.129,15.31C10.018,15.357 9.88,15.38 9.716,15.38C9.599,15.38 9.493,15.367 9.396,15.34C9.308,15.315 9.224,15.277 9.148,15.225C9.013,15.138 8.921,14.999 8.893,14.841L8.128,14.841Z"/>
    <g transform="matrix(1,0,0,1,4,0)">
        <rect x="3.269" y="11.85" width="0.79" height="3.999"/>
    </g>
    <path d="M5.191,15.175L6.887,15.175L6.887,15.849L4.4,15.849L4.4,11.85L5.191,11.85L5.191,15.175Z"/>
    <path d="M1.328,11.85L2.928,11.85C3.216,11.85 3.461,11.91 3.66,12.029C3.86,12.146 4.014,12.305 4.12,12.506C4.225,12.707 4.278,12.933 4.278,13.183C4.278,13.433 4.224,13.659 4.117,13.86C4.011,14.059 3.857,14.217 3.654,14.334C3.429,14.455 3.176,14.515 2.921,14.507L2.12,14.507L2.12,15.849L1.329,15.849L1.329,11.85L1.328,11.85ZM3.388,13.564C3.447,13.446 3.476,13.315 3.472,13.183C3.472,12.956 3.411,12.783 3.288,12.662C3.165,12.54 2.994,12.48 2.775,12.48L2.115,12.48L2.115,13.886L2.775,13.886C2.905,13.89 3.034,13.862 3.15,13.804C3.251,13.75 3.334,13.666 3.387,13.564L3.388,13.564Z"/>
    <path d="M14,4.5L14,11L13,11L13,4.5L11,4.5C10.177,4.5 9.5,3.823 9.5,3L9.5,1L4,1C3.451,1 3,1.451 3,2L3,11L2,11L2,2C2,0.903 2.903,0 4,0L9.5,0L14,4.5Z"/>
</svg>
