<?xml version="1.0" encoding="UTF-8" standalone="no"?>
<!DOCTYPE svg PUBLIC "-//W3C//DTD SVG 1.1//EN" "http://www.w3.org/Graphics/SVG/1.1/DTD/svg11.dtd">
<svg width="100%" height="100%" viewBox="0 0 16 16" version="1.1" xmlns="http://www.w3.org/2000/svg" xmlns:xlink="http://www.w3.org/1999/xlink" xml:space="preserve" xmlns:serif="http://www.serif.com/" style="fill-rule:evenodd;clip-rule:evenodd;stroke-linejoin:round;stroke-miterlimit:2;">
    <rect x="8.269" y="11.85" width="0.79" height="3.999"/>
    <path d="M5.231,13.256L5.231,15.931L4.485,15.931L4.485,11.932L5.147,11.932L6.899,14.592L6.931,14.592L6.931,11.932L7.681,11.932L7.681,15.932L7.025,15.932L5.264,13.256L5.231,13.256Z"/>
    <rect x="3.269" y="11.85" width="0.79" height="3.999"/>
    <path d="M14,4.5L14,14C14,15.097 13.097,16 12,16L11,16L11,15L12,15C12.549,15 13,14.549 13,14L13,4.5L11,4.5C10.177,4.5 9.5,3.823 9.5,3L9.5,1L4,1C3.451,1 3,1.451 3,2L3,11L2,11L2,2C2,0.903 2.903,0 4,0L9.5,0L14,4.5Z"/>
</svg>
