<svg width="16" height="16" xmlns="http://www.w3.org/2000/svg" class="bi bi-filetype-png" fill="currentColor">
  <g id="svg_1" transform="matrix(0.0290615,0,0,0.0290615,-2.17153,-0.133375)">
   <path id="svg_2" fill-rule="nonzero" d="m315,192.5l70,0c11.598,0.012 22.719,4.629 30.922,12.828c8.199,8.203 12.816,19.324 12.828,30.922l0,36.91c-23.199,15.855 -50.648,24.34 -78.75,24.34c-28.102,0 -55.551,-8.484 -78.75,-24.34l0,-36.91c0.012,-11.598 4.629,-22.719 12.828,-30.922c8.203,-8.199 19.324,-12.816 30.922,-12.828zm-166.25,227.5c-16.246,0 -31.824,6.453 -43.309,17.941c-11.488,11.484 -17.941,27.062 -17.941,43.309c0,16.247 6.453,31.824 17.941,43.309c11.484,11.488 27.062,17.941 43.309,17.941c16.247,0 31.824,-6.453 43.309,-17.941c11.488,-11.484 17.941,-27.062 17.941,-43.309c-0.02,-16.238 -6.477,-31.809 -17.961,-43.289c-11.48,-11.484 -27.051,-17.941 -43.289,-17.961zm245,-288.75c0,-11.602 -4.609,-22.73 -12.812,-30.938c-8.207,-8.203 -19.336,-12.812 -30.938,-12.812c-11.602,0 -22.73,4.609 -30.938,12.812c-8.203,8.207 -12.812,19.336 -12.812,30.938c0,11.602 4.609,22.73 12.812,30.938c8.207,8.203 19.336,12.812 30.938,12.812c11.598,-0.012 22.719,-4.629 30.922,-12.828c8.199,-8.203 12.816,-19.324 12.828,-30.922zm-140,105c0.023,-14.977 5.527,-29.426 15.473,-40.621c9.945,-11.199 23.645,-18.367 38.512,-20.156c-11.879,-11.328 -18.715,-26.945 -18.977,-43.359c-0.262,-16.41 6.074,-32.238 17.59,-43.938c11.512,-11.699 27.238,-18.285 43.652,-18.285c16.414,0 32.141,6.586 43.652,18.285c11.516,11.699 17.852,27.527 17.59,43.938c-0.262,16.414 -7.098,32.031 -18.977,43.359c14.867,1.789 28.566,8.957 38.512,20.156c9.945,11.195 15.449,25.645 15.473,40.621l0,22.652c27.285,-25.832 43.043,-61.547 43.727,-99.113c0.684,-37.566 -13.758,-73.832 -40.082,-100.64c-26.324,-26.812 -62.32,-41.914 -99.895,-41.914c-37.575,0 -73.57,15.102 -99.895,41.914c-26.324,26.809 -40.766,63.074 -40.082,100.64c0.684,37.566 16.441,73.281 43.727,99.113l0,-22.652zm297.5,183.75c-16.246,0 -31.824,6.453 -43.309,17.941c-11.488,11.484 -17.941,27.062 -17.941,43.309c0,16.247 6.453,31.824 17.941,43.309c11.484,11.488 27.062,17.941 43.309,17.941c16.247,0 31.824,-6.453 43.309,-17.941c11.488,-11.484 17.941,-27.062 17.941,-43.309c-0.02,-16.238 -6.477,-31.809 -17.961,-43.289c-11.48,-11.484 -27.051,-17.941 -43.289,-17.961zm-201.25,0c-16.246,0 -31.824,6.453 -43.309,17.941c-11.488,11.484 -17.941,27.062 -17.941,43.309c0,16.247 6.453,31.824 17.941,43.309c11.484,11.488 27.062,17.941 43.309,17.941c16.247,0 31.824,-6.453 43.309,-17.941c11.488,-11.484 17.941,-27.062 17.941,-43.309c-0.02,-16.238 -6.477,-31.809 -17.961,-43.289c-11.48,-11.484 -27.051,-17.941 -43.289,-17.961zm-192.5,-16.984l0,-26.766c0.004,-4.832 3.918,-8.746 8.75,-8.75l175,0l0,35.516c5.813,-0.687 11.688,-0.687 17.5,0l0,-35.516l175,0c4.832,0.004 8.746,3.918 8.75,8.75l0,26.766c5.813,-0.687 11.688,-0.687 17.5,0l0,-26.766c-0.008,-6.961 -2.777,-13.633 -7.695,-18.555c-4.922,-4.918 -11.594,-7.687 -18.555,-7.695l-175,0l0,-35.441c-2.914,0.16 -5.797,0.441 -8.75,0.441c-2.953,0 -5.836,-0.281 -8.75,-0.441l0,35.441l-175,0c-6.961,0.008 -13.633,2.777 -18.555,7.695c-4.918,4.922 -7.688,11.594 -7.696,18.555l0,26.766c5.813,-0.687 11.688,-0.687 17.5,0l0.001,0z"/>
  </g>
</svg>